<mxfile host="app.diagrams.net" modified="2024-05-15T10:43:56.575Z" agent="Mozilla/5.0 (Windows NT 10.0; Win64; x64) AppleWebKit/537.36 (KHTML, like Gecko) Chrome/121.0.0.0 Safari/537.36 OPR/107.0.0.0" etag="5x9XvpKD7hEmuTkl8ktn" version="24.2.3" type="device">
  <diagram name="Страница — 1" id="hHgu4_A_K6ii4Qnfn_YF">
    <mxGraphModel dx="1461" dy="606" grid="1" gridSize="10" guides="1" tooltips="1" connect="1" arrows="1" fold="1" page="1" pageScale="1" pageWidth="827" pageHeight="1169" math="0" shadow="0">
      <root>
        <mxCell id="0" />
        <mxCell id="1" parent="0" />
        <mxCell id="MLJns0bARZorMI7iFlxt-5" value="Desktop App" style="swimlane;whiteSpace=wrap;html=1;" vertex="1" parent="1">
          <mxGeometry x="140" y="10" width="450" height="150" as="geometry" />
        </mxCell>
        <mxCell id="MLJns0bARZorMI7iFlxt-1" value="&lt;span style=&quot;font-size: 22px;&quot;&gt;Maui Windows&amp;nbsp;&lt;/span&gt;&lt;div&gt;&lt;span style=&quot;font-size: 22px;&quot;&gt;App&lt;/span&gt;&lt;/div&gt;" style="rounded=0;whiteSpace=wrap;html=1;" vertex="1" parent="MLJns0bARZorMI7iFlxt-5">
          <mxGeometry x="30" y="40" width="160" height="70" as="geometry" />
        </mxCell>
        <mxCell id="MLJns0bARZorMI7iFlxt-6" value="&lt;span style=&quot;font-size: 22px;&quot;&gt;Windows Forms&amp;nbsp;&lt;/span&gt;&lt;div&gt;&lt;span style=&quot;font-size: 22px;&quot;&gt;App&lt;/span&gt;&lt;/div&gt;" style="rounded=0;whiteSpace=wrap;html=1;" vertex="1" parent="MLJns0bARZorMI7iFlxt-5">
          <mxGeometry x="260" y="40" width="170" height="70" as="geometry" />
        </mxCell>
        <mxCell id="MLJns0bARZorMI7iFlxt-7" value="Server" style="swimlane;whiteSpace=wrap;html=1;" vertex="1" parent="1">
          <mxGeometry x="160" y="220" width="450" height="230" as="geometry" />
        </mxCell>
        <mxCell id="MLJns0bARZorMI7iFlxt-2" value="&lt;font style=&quot;font-size: 17px;&quot;&gt;Сервер&amp;nbsp;&lt;/font&gt;&lt;div style=&quot;font-size: 17px;&quot;&gt;&lt;font style=&quot;font-size: 17px;&quot;&gt;обработки запросов&lt;/font&gt;&lt;/div&gt;" style="rounded=0;whiteSpace=wrap;html=1;" vertex="1" parent="MLJns0bARZorMI7iFlxt-7">
          <mxGeometry x="40" y="40" width="170" height="80" as="geometry" />
        </mxCell>
        <mxCell id="MLJns0bARZorMI7iFlxt-3" value="&lt;font style=&quot;font-size: 17px;&quot;&gt;База данных&lt;/font&gt;&lt;div&gt;&lt;font style=&quot;font-size: 17px;&quot;&gt;PostgreSQL&lt;/font&gt;&lt;/div&gt;" style="rounded=0;whiteSpace=wrap;html=1;" vertex="1" parent="MLJns0bARZorMI7iFlxt-7">
          <mxGeometry x="240" y="130" width="190" height="80" as="geometry" />
        </mxCell>
        <mxCell id="MLJns0bARZorMI7iFlxt-12" value="" style="endArrow=classic;startArrow=classic;html=1;rounded=0;entryX=0.5;entryY=1;entryDx=0;entryDy=0;exitX=0;exitY=0.5;exitDx=0;exitDy=0;" edge="1" parent="MLJns0bARZorMI7iFlxt-7" source="MLJns0bARZorMI7iFlxt-3" target="MLJns0bARZorMI7iFlxt-2">
          <mxGeometry width="50" height="50" relative="1" as="geometry">
            <mxPoint x="120" y="210" as="sourcePoint" />
            <mxPoint x="170" y="160" as="targetPoint" />
            <Array as="points">
              <mxPoint x="125" y="170" />
            </Array>
          </mxGeometry>
        </mxCell>
        <mxCell id="MLJns0bARZorMI7iFlxt-14" value="" style="endArrow=classic;startArrow=classic;html=1;rounded=0;entryX=0.5;entryY=1;entryDx=0;entryDy=0;exitX=0.5;exitY=0;exitDx=0;exitDy=0;" edge="1" parent="1" source="MLJns0bARZorMI7iFlxt-7" target="MLJns0bARZorMI7iFlxt-5">
          <mxGeometry width="50" height="50" relative="1" as="geometry">
            <mxPoint x="360" y="210" as="sourcePoint" />
            <mxPoint x="410" y="160" as="targetPoint" />
          </mxGeometry>
        </mxCell>
      </root>
    </mxGraphModel>
  </diagram>
</mxfile>
